<svg width="233" height="270" viewBox="0 0 233 270" fill="none" xmlns="http://www.w3.org/2000/svg">
<rect width="233" height="270" fill="#66522B" fill-opacity="0.68"/>
<path d="M8.07955 204H7.02273C6.96023 203.696 6.85085 203.429 6.6946 203.199C6.54119 202.969 6.35369 202.776 6.1321 202.619C5.91335 202.46 5.67045 202.341 5.40341 202.261C5.13636 202.182 4.85795 202.142 4.56818 202.142C4.03977 202.142 3.56108 202.276 3.1321 202.543C2.70597 202.81 2.36648 203.203 2.11364 203.723C1.86364 204.243 1.73864 204.881 1.73864 205.636C1.73864 206.392 1.86364 207.03 2.11364 207.55C2.36648 208.07 2.70597 208.463 3.1321 208.73C3.56108 208.997 4.03977 209.131 4.56818 209.131C4.85795 209.131 5.13636 209.091 5.40341 209.011C5.67045 208.932 5.91335 208.814 6.1321 208.658C6.35369 208.499 6.54119 208.304 6.6946 208.074C6.85085 207.841 6.96023 207.574 7.02273 207.273H8.07955C8 207.719 7.85511 208.118 7.64489 208.47C7.43466 208.822 7.1733 209.122 6.8608 209.369C6.5483 209.614 6.19744 209.8 5.80824 209.928C5.42188 210.055 5.00852 210.119 4.56818 210.119C3.82386 210.119 3.16193 209.938 2.58239 209.574C2.00284 209.21 1.54688 208.693 1.21449 208.023C0.882102 207.352 0.715909 206.557 0.715909 205.636C0.715909 204.716 0.882102 203.92 1.21449 203.25C1.54688 202.58 2.00284 202.062 2.58239 201.699C3.16193 201.335 3.82386 201.153 4.56818 201.153C5.00852 201.153 5.42188 201.217 5.80824 201.345C6.19744 201.473 6.5483 201.661 6.8608 201.908C7.1733 202.152 7.43466 202.45 7.64489 202.803C7.85511 203.152 8 203.551 8.07955 204ZM17.1509 205.636C17.1509 206.557 16.9847 207.352 16.6523 208.023C16.32 208.693 15.864 209.21 15.2844 209.574C14.7049 209.938 14.043 210.119 13.2987 210.119C12.5543 210.119 11.8924 209.938 11.3129 209.574C10.7333 209.21 10.2773 208.693 9.94496 208.023C9.61257 207.352 9.44638 206.557 9.44638 205.636C9.44638 204.716 9.61257 203.92 9.94496 203.25C10.2773 202.58 10.7333 202.062 11.3129 201.699C11.8924 201.335 12.5543 201.153 13.2987 201.153C14.043 201.153 14.7049 201.335 15.2844 201.699C15.864 202.062 16.32 202.58 16.6523 203.25C16.9847 203.92 17.1509 204.716 17.1509 205.636ZM16.1282 205.636C16.1282 204.881 16.0018 204.243 15.7489 203.723C15.4989 203.203 15.1594 202.81 14.7305 202.543C14.3043 202.276 13.8271 202.142 13.2987 202.142C12.7702 202.142 12.2915 202.276 11.8626 202.543C11.4364 202.81 11.0969 203.203 10.8441 203.723C10.5941 204.243 10.4691 204.881 10.4691 205.636C10.4691 206.392 10.5941 207.03 10.8441 207.55C11.0969 208.07 11.4364 208.463 11.8626 208.73C12.2915 208.997 12.7702 209.131 13.2987 209.131C13.8271 209.131 14.3043 208.997 14.7305 208.73C15.1594 208.463 15.4989 208.07 15.7489 207.55C16.0018 207.03 16.1282 206.392 16.1282 205.636ZM25.8484 201.273V210H24.8256L20.07 203.148H19.9847V210H18.9279V201.273H19.9506L24.7234 208.142H24.8086V201.273H25.8484ZM27.9631 210V201.273H33.196V202.21H29.0199V205.159H32.804V206.097H29.0199V210H27.9631ZM36.0629 201.273V210H35.006V201.273H36.0629ZM38.1818 210V201.273H41.1307C41.8125 201.273 42.3722 201.389 42.8097 201.622C43.2472 201.852 43.571 202.169 43.7812 202.572C43.9915 202.976 44.0966 203.435 44.0966 203.949C44.0966 204.463 43.9915 204.919 43.7812 205.317C43.571 205.714 43.2486 206.027 42.8139 206.254C42.3793 206.479 41.8239 206.591 41.1477 206.591H38.7614V205.636H41.1136C41.5795 205.636 41.9545 205.568 42.2386 205.432C42.5256 205.295 42.733 205.102 42.8608 204.852C42.9915 204.599 43.0568 204.298 43.0568 203.949C43.0568 203.599 42.9915 203.294 42.8608 203.033C42.7301 202.771 42.5213 202.57 42.2344 202.428C41.9474 202.283 41.5682 202.21 41.0966 202.21H39.2386V210H38.1818ZM42.2898 206.08L44.4375 210H43.2102L41.0966 206.08H42.2898ZM45.8576 201.273H47.119L50.0849 208.517H50.1871L53.1531 201.273H54.4144V210H53.4258V203.369H53.3406L50.6133 210H49.6587L46.9315 203.369H46.8462V210H45.8576V201.273ZM56.8913 210H55.7834L58.9879 201.273H60.0788L63.2834 210H62.1754L59.5675 202.653H59.4993L56.8913 210ZM57.3004 206.591H61.7663V207.528H57.3004V206.591ZM64.6428 210V201.273H67.5916C68.2734 201.273 68.8331 201.389 69.2706 201.622C69.7081 201.852 70.032 202.169 70.2422 202.572C70.4524 202.976 70.5575 203.435 70.5575 203.949C70.5575 204.463 70.4524 204.919 70.2422 205.317C70.032 205.714 69.7095 206.027 69.2749 206.254C68.8402 206.479 68.2848 206.591 67.6087 206.591H65.2223V205.636H67.5746C68.0405 205.636 68.4155 205.568 68.6996 205.432C68.9865 205.295 69.1939 205.102 69.3217 204.852C69.4524 204.599 69.5178 204.298 69.5178 203.949C69.5178 203.599 69.4524 203.294 69.3217 203.033C69.1911 202.771 68.9822 202.57 68.6953 202.428C68.4084 202.283 68.0291 202.21 67.5575 202.21H65.6996V210H64.6428ZM68.7507 206.08L70.8984 210H69.6712L67.5575 206.08H68.7507ZM80.4663 203.455C80.4151 203.023 80.2077 202.688 79.8441 202.449C79.4805 202.21 79.0344 202.091 78.506 202.091C78.1197 202.091 77.7816 202.153 77.4918 202.278C77.2049 202.403 76.9805 202.575 76.8185 202.794C76.6594 203.013 76.5799 203.261 76.5799 203.54C76.5799 203.773 76.6353 203.973 76.7461 204.141C76.8597 204.305 77.0046 204.443 77.1808 204.554C77.3569 204.662 77.5415 204.751 77.7347 204.822C77.9279 204.891 78.1055 204.946 78.2674 204.989L79.1538 205.227C79.381 205.287 79.6339 205.369 79.9123 205.474C80.1935 205.58 80.462 205.723 80.7177 205.905C80.9762 206.084 81.1893 206.314 81.3569 206.595C81.5245 206.876 81.6083 207.222 81.6083 207.631C81.6083 208.102 81.4847 208.528 81.2376 208.909C80.9933 209.29 80.6353 209.592 80.1637 209.817C79.695 210.041 79.1254 210.153 78.4549 210.153C77.8299 210.153 77.2887 210.053 76.8313 209.851C76.3768 209.649 76.0188 209.368 75.7575 209.007C75.4989 208.646 75.3526 208.227 75.3185 207.75H76.4094C76.4379 208.08 76.5487 208.352 76.7418 208.568C76.9379 208.781 77.185 208.94 77.4833 209.045C77.7844 209.148 78.1083 209.199 78.4549 209.199C78.8583 209.199 79.2205 209.134 79.5415 209.003C79.8626 208.869 80.1168 208.685 80.3043 208.449C80.4918 208.21 80.5856 207.932 80.5856 207.614C80.5856 207.324 80.5046 207.088 80.3427 206.906C80.1808 206.724 79.9677 206.577 79.7035 206.463C79.4393 206.349 79.1538 206.25 78.8469 206.165L77.7731 205.858C77.0913 205.662 76.5515 205.382 76.1538 205.018C75.756 204.655 75.5572 204.179 75.5572 203.591C75.5572 203.102 75.6893 202.676 75.9535 202.312C76.2205 201.946 76.5785 201.662 77.0273 201.46C77.479 201.256 77.9833 201.153 78.5401 201.153C79.1026 201.153 79.6026 201.254 80.0401 201.456C80.4776 201.655 80.8242 201.928 81.0799 202.274C81.3384 202.621 81.4748 203.014 81.489 203.455H80.4663ZM83.3459 210V201.273H88.6129V202.21H84.4027V205.159H88.3402V206.097H84.4027V209.062H88.6811V210H83.3459ZM97.4382 201.273V210H96.4155L91.6598 203.148H91.5746V210H90.5178V201.273H91.5405L96.3132 208.142H96.3984V201.273H97.4382ZM99.5529 210V201.273H100.61V205.159H105.263V201.273H106.32V210H105.263V206.097H100.61V210H99.5529ZM108.794 210H107.686L110.89 201.273H111.981L115.186 210H114.078L111.47 202.653H111.402L108.794 210ZM109.203 206.591H113.669V207.528H109.203V206.591ZM117.142 208.884C116.931 208.884 116.751 208.808 116.6 208.658C116.45 208.507 116.375 208.327 116.375 208.116C116.375 207.906 116.45 207.726 116.6 207.575C116.751 207.425 116.931 207.349 117.142 207.349C117.352 207.349 117.532 207.425 117.683 207.575C117.833 207.726 117.909 207.906 117.909 208.116C117.909 208.256 117.873 208.384 117.802 208.5C117.734 208.616 117.642 208.71 117.525 208.781C117.412 208.849 117.284 208.884 117.142 208.884ZM117.142 204.469C116.931 204.469 116.751 204.393 116.6 204.243C116.45 204.092 116.375 203.912 116.375 203.702C116.375 203.491 116.45 203.311 116.6 203.161C116.751 203.01 116.931 202.935 117.142 202.935C117.352 202.935 117.532 203.01 117.683 203.161C117.833 203.311 117.909 203.491 117.909 203.702C117.909 203.841 117.873 203.969 117.802 204.085C117.734 204.202 117.642 204.295 117.525 204.366C117.412 204.435 117.284 204.469 117.142 204.469Z" fill="black"/>
<rect x="113" y="163" width="112" height="20" fill="#D9D9D9"/>
<path d="M68.8295 171.455C68.7784 171.023 68.571 170.688 68.2074 170.449C67.8438 170.21 67.3977 170.091 66.8693 170.091C66.483 170.091 66.1449 170.153 65.8551 170.278C65.5682 170.403 65.3438 170.575 65.1818 170.794C65.0227 171.013 64.9432 171.261 64.9432 171.54C64.9432 171.773 64.9986 171.973 65.1094 172.141C65.223 172.305 65.3679 172.443 65.544 172.554C65.7202 172.662 65.9048 172.751 66.098 172.822C66.2912 172.891 66.4688 172.946 66.6307 172.989L67.517 173.227C67.7443 173.287 67.9972 173.369 68.2756 173.474C68.5568 173.58 68.8253 173.723 69.081 173.905C69.3395 174.084 69.5526 174.314 69.7202 174.595C69.8878 174.876 69.9716 175.222 69.9716 175.631C69.9716 176.102 69.848 176.528 69.6009 176.909C69.3565 177.29 68.9986 177.592 68.527 177.817C68.0582 178.041 67.4886 178.153 66.8182 178.153C66.1932 178.153 65.652 178.053 65.1946 177.851C64.7401 177.649 64.3821 177.368 64.1207 177.007C63.8622 176.646 63.7159 176.227 63.6818 175.75H64.7727C64.8011 176.08 64.9119 176.352 65.1051 176.568C65.3011 176.781 65.5483 176.94 65.8466 177.045C66.1477 177.148 66.4716 177.199 66.8182 177.199C67.2216 177.199 67.5838 177.134 67.9048 177.003C68.2259 176.869 68.4801 176.685 68.6676 176.449C68.8551 176.21 68.9489 175.932 68.9489 175.614C68.9489 175.324 68.8679 175.088 68.706 174.906C68.544 174.724 68.331 174.577 68.0668 174.463C67.8026 174.349 67.517 174.25 67.2102 174.165L66.1364 173.858C65.4545 173.662 64.9148 173.382 64.517 173.018C64.1193 172.655 63.9205 172.179 63.9205 171.591C63.9205 171.102 64.0526 170.676 64.3168 170.312C64.5838 169.946 64.9418 169.662 65.3906 169.46C65.8423 169.256 66.3466 169.153 66.9034 169.153C67.4659 169.153 67.9659 169.254 68.4034 169.456C68.8409 169.655 69.1875 169.928 69.4432 170.274C69.7017 170.621 69.8381 171.014 69.8523 171.455H68.8295ZM71.7092 178V169.273H76.9762V170.21H72.766V173.159H76.7035V174.097H72.766V177.062H77.0444V178H71.7092ZM85.8015 169.273V178H84.7788L80.0231 171.148H79.9379V178H78.881V169.273H79.9038L84.6765 176.142H84.7617V169.273H85.8015ZM87.9162 178V169.273H88.973V173.159H93.6264V169.273H94.6832V178H93.6264V174.097H88.973V178H87.9162ZM97.157 178H96.049L99.2536 169.273H100.344L103.549 178H102.441L99.8331 170.653H99.7649L97.157 178ZM97.5661 174.591H102.032V175.528H97.5661V174.591ZM105.505 176.884C105.295 176.884 105.114 176.808 104.964 176.658C104.813 176.507 104.738 176.327 104.738 176.116C104.738 175.906 104.813 175.726 104.964 175.575C105.114 175.425 105.295 175.349 105.505 175.349C105.715 175.349 105.896 175.425 106.046 175.575C106.197 175.726 106.272 175.906 106.272 176.116C106.272 176.256 106.237 176.384 106.165 176.5C106.097 176.616 106.005 176.71 105.888 176.781C105.775 176.849 105.647 176.884 105.505 176.884ZM105.505 172.469C105.295 172.469 105.114 172.393 104.964 172.243C104.813 172.092 104.738 171.912 104.738 171.702C104.738 171.491 104.813 171.311 104.964 171.161C105.114 171.01 105.295 170.935 105.505 170.935C105.715 170.935 105.896 171.01 106.046 171.161C106.197 171.311 106.272 171.491 106.272 171.702C106.272 171.841 106.237 171.969 106.165 172.085C106.097 172.202 106.005 172.295 105.888 172.366C105.775 172.435 105.647 172.469 105.505 172.469Z" fill="black"/>
<rect x="113" y="120" width="112" height="20" fill="#D9D9D9"/>
<path d="M64.0568 132V123.273H69.3239V124.21H65.1136V127.159H69.0511V128.097H65.1136V131.062H69.392V132H64.0568ZM74.8423 127.168V128.105H71.0241V127.168H74.8423ZM76.7482 123.273H78.0096L80.9755 130.517H81.0778L84.0437 123.273H85.305V132H84.3164V125.369H84.2312L81.5039 132H80.5494L77.8221 125.369H77.7369V132H76.7482V123.273ZM87.782 132H86.674L89.8786 123.273H90.9695L94.174 132H93.0661L90.4581 124.653H90.3899L87.782 132ZM88.1911 128.591H92.657V129.528H88.1911V128.591ZM96.5902 123.273V132H95.5334V123.273H96.5902ZM98.7092 132V123.273H99.766V131.062H103.823V132H98.7092ZM106.056 130.884C105.846 130.884 105.665 130.808 105.515 130.658C105.364 130.507 105.289 130.327 105.289 130.116C105.289 129.906 105.364 129.726 105.515 129.575C105.665 129.425 105.846 129.349 106.056 129.349C106.266 129.349 106.446 129.425 106.597 129.575C106.748 129.726 106.823 129.906 106.823 130.116C106.823 130.256 106.787 130.384 106.716 130.5C106.648 130.616 106.556 130.71 106.439 130.781C106.326 130.849 106.198 130.884 106.056 130.884ZM106.056 126.469C105.846 126.469 105.665 126.393 105.515 126.243C105.364 126.092 105.289 125.912 105.289 125.702C105.289 125.491 105.364 125.311 105.515 125.161C105.665 125.01 105.846 124.935 106.056 124.935C106.266 124.935 106.446 125.01 106.597 125.161C106.748 125.311 106.823 125.491 106.823 125.702C106.823 125.841 106.787 125.969 106.716 126.085C106.648 126.202 106.556 126.295 106.439 126.366C106.326 126.435 106.198 126.469 106.056 126.469Z" fill="black"/>
<path d="M66.9773 89.2727V98H65.9545L61.1989 91.1477H61.1136V98H60.0568V89.2727H61.0795L65.8523 96.142H65.9375V89.2727H66.9773ZM76.4556 93.6364C76.4556 94.5568 76.2894 95.3523 75.957 96.0227C75.6246 96.6932 75.1687 97.2102 74.5891 97.5739C74.0096 97.9375 73.3477 98.1193 72.6033 98.1193C71.859 98.1193 71.1971 97.9375 70.6175 97.5739C70.038 97.2102 69.582 96.6932 69.2496 96.0227C68.9173 95.3523 68.7511 94.5568 68.7511 93.6364C68.7511 92.7159 68.9173 91.9205 69.2496 91.25C69.582 90.5795 70.038 90.0625 70.6175 89.6989C71.1971 89.3352 71.859 89.1534 72.6033 89.1534C73.3477 89.1534 74.0096 89.3352 74.5891 89.6989C75.1687 90.0625 75.6246 90.5795 75.957 91.25C76.2894 91.9205 76.4556 92.7159 76.4556 93.6364ZM75.4329 93.6364C75.4329 92.8807 75.3065 92.2429 75.0536 91.723C74.8036 91.2031 74.4641 90.8097 74.0352 90.5426C73.609 90.2756 73.1317 90.142 72.6033 90.142C72.0749 90.142 71.5962 90.2756 71.1673 90.5426C70.7411 90.8097 70.4016 91.2031 70.1488 91.723C69.8988 92.2429 69.7738 92.8807 69.7738 93.6364C69.7738 94.392 69.8988 95.0298 70.1488 95.5497C70.4016 96.0696 70.7411 96.4631 71.1673 96.7301C71.5962 96.9972 72.0749 97.1307 72.6033 97.1307C73.1317 97.1307 73.609 96.9972 74.0352 96.7301C74.4641 96.4631 74.8036 96.0696 75.0536 95.5497C75.3065 95.0298 75.4329 94.392 75.4329 93.6364ZM78.2326 89.2727H79.494L82.4599 96.517H82.5621L85.5281 89.2727H86.7894V98H85.8008V91.3693H85.7156L82.9883 98H82.0337L79.3065 91.3693H79.2212V98H78.2326V89.2727ZM88.9084 98V89.2727H94.1754V90.2102H89.9652V93.1591H93.9027V94.0966H89.9652V97.0625H94.2436V98H88.9084ZM96.6768 96.8835C96.4666 96.8835 96.2862 96.8082 96.1357 96.6577C95.9851 96.5071 95.9098 96.3267 95.9098 96.1165C95.9098 95.9062 95.9851 95.7259 96.1357 95.5753C96.2862 95.4247 96.4666 95.3494 96.6768 95.3494C96.8871 95.3494 97.0675 95.4247 97.218 95.5753C97.3686 95.7259 97.4439 95.9062 97.4439 96.1165C97.4439 96.2557 97.4084 96.3835 97.3374 96.5C97.2692 96.6165 97.1768 96.7102 97.0604 96.7812C96.9467 96.8494 96.8189 96.8835 96.6768 96.8835ZM96.6768 92.4688C96.4666 92.4688 96.2862 92.3935 96.1357 92.2429C95.9851 92.0923 95.9098 91.9119 95.9098 91.7017C95.9098 91.4915 95.9851 91.3111 96.1357 91.1605C96.2862 91.0099 96.4666 90.9347 96.6768 90.9347C96.8871 90.9347 97.0675 91.0099 97.218 91.1605C97.3686 91.3111 97.4439 91.4915 97.4439 91.7017C97.4439 91.8409 97.4084 91.9688 97.3374 92.0852C97.2692 92.2017 97.1768 92.2955 97.0604 92.3665C96.9467 92.4347 96.8189 92.4688 96.6768 92.4688Z" fill="black"/>
<rect x="104" y="83" width="112" height="20" fill="#D9D9D9"/>
<rect x="11" width="156" height="51" fill="#285432"/>
<path d="M51.1136 21.2727V30H50.0568V21.2727H51.1136ZM60.1531 21.2727V30H59.1303L54.3746 23.1477H54.2894V30H53.2326V21.2727H54.2553L59.0281 28.142H59.1133V21.2727H60.1531ZM67.0405 23.4545C66.9893 23.0227 66.782 22.6875 66.4183 22.4489C66.0547 22.2102 65.6087 22.0909 65.0803 22.0909C64.6939 22.0909 64.3558 22.1534 64.0661 22.2784C63.7791 22.4034 63.5547 22.5753 63.3928 22.794C63.2337 23.0128 63.1541 23.2614 63.1541 23.5398C63.1541 23.7727 63.2095 23.973 63.3203 24.1406C63.4339 24.3054 63.5788 24.4432 63.755 24.554C63.9311 24.6619 64.1158 24.7514 64.3089 24.8224C64.5021 24.8906 64.6797 24.946 64.8416 24.9886L65.728 25.2273C65.9553 25.2869 66.2081 25.3693 66.4865 25.4744C66.7678 25.5795 67.0362 25.723 67.2919 25.9048C67.5504 26.0838 67.7635 26.3139 67.9311 26.5952C68.0987 26.8764 68.1825 27.2216 68.1825 27.6307C68.1825 28.1023 68.0589 28.5284 67.8118 28.9091C67.5675 29.2898 67.2095 29.5923 66.7379 29.8168C66.2692 30.0412 65.6996 30.1534 65.0291 30.1534C64.4041 30.1534 63.8629 30.0526 63.4055 29.8509C62.951 29.6491 62.593 29.3679 62.3317 29.0071C62.0732 28.6463 61.9268 28.2273 61.8928 27.75H62.9837C63.0121 28.0795 63.1229 28.3523 63.3161 28.5682C63.5121 28.7812 63.7592 28.9403 64.0575 29.0455C64.3587 29.1477 64.6825 29.1989 65.0291 29.1989C65.4325 29.1989 65.7947 29.1335 66.1158 29.0028C66.4368 28.8693 66.6911 28.6847 66.8786 28.4489C67.0661 28.2102 67.1598 27.9318 67.1598 27.6136C67.1598 27.3239 67.0788 27.0881 66.9169 26.9062C66.755 26.7244 66.5419 26.5767 66.2777 26.4631C66.0135 26.3494 65.728 26.25 65.4212 26.1648L64.3473 25.858C63.6655 25.6619 63.1257 25.3821 62.728 25.0185C62.3303 24.6548 62.1314 24.179 62.1314 23.5909C62.1314 23.1023 62.2635 22.6761 62.5277 22.3125C62.7947 21.946 63.1527 21.6619 63.6016 21.4602C64.0533 21.2557 64.5575 21.1534 65.1143 21.1534C65.6768 21.1534 66.1768 21.2543 66.6143 21.456C67.0518 21.6548 67.3984 21.9276 67.6541 22.2741C67.9126 22.6207 68.049 23.0142 68.0632 23.4545H67.0405ZM76.9428 24H75.886C75.8235 23.696 75.7141 23.429 75.5579 23.1989C75.4045 22.9688 75.217 22.7756 74.9954 22.6193C74.7766 22.4602 74.5337 22.3409 74.2667 22.2614C73.9996 22.1818 73.7212 22.142 73.4315 22.142C72.9031 22.142 72.4244 22.2756 71.9954 22.5426C71.5692 22.8097 71.2298 23.2031 70.9769 23.723C70.7269 24.2429 70.6019 24.8807 70.6019 25.6364C70.6019 26.392 70.7269 27.0298 70.9769 27.5497C71.2298 28.0696 71.5692 28.4631 71.9954 28.7301C72.4244 28.9972 72.9031 29.1307 73.4315 29.1307C73.7212 29.1307 73.9996 29.0909 74.2667 29.0114C74.5337 28.9318 74.7766 28.8139 74.9954 28.6577C75.217 28.4986 75.4045 28.304 75.5579 28.0739C75.7141 27.8409 75.8235 27.5739 75.886 27.2727H76.9428C76.8633 27.7187 76.7184 28.1179 76.5082 28.4702C76.2979 28.8224 76.0366 29.1222 75.7241 29.3693C75.4116 29.6136 75.0607 29.7997 74.6715 29.9276C74.2852 30.0554 73.8718 30.1193 73.4315 30.1193C72.6871 30.1193 72.0252 29.9375 71.4457 29.5739C70.8661 29.2102 70.4102 28.6932 70.0778 28.0227C69.7454 27.3523 69.5792 26.5568 69.5792 25.6364C69.5792 24.7159 69.7454 23.9205 70.0778 23.25C70.4102 22.5795 70.8661 22.0625 71.4457 21.6989C72.0252 21.3352 72.6871 21.1534 73.4315 21.1534C73.8718 21.1534 74.2852 21.2173 74.6715 21.3452C75.0607 21.473 75.4116 21.6605 75.7241 21.9077C76.0366 22.152 76.2979 22.4503 76.5082 22.8026C76.7184 23.152 76.8633 23.5511 76.9428 24ZM78.6506 30V21.2727H81.5994C82.2813 21.2727 82.8409 21.3892 83.2784 21.6222C83.7159 21.8523 84.0398 22.169 84.25 22.5724C84.4602 22.9759 84.5653 23.4347 84.5653 23.9489C84.5653 24.4631 84.4602 24.919 84.25 25.3168C84.0398 25.7145 83.7173 26.027 83.2827 26.2543C82.848 26.4787 82.2926 26.5909 81.6165 26.5909H79.2301V25.6364H81.5824C82.0483 25.6364 82.4233 25.5682 82.7074 25.4318C82.9943 25.2955 83.2017 25.1023 83.3295 24.8523C83.4602 24.5994 83.5256 24.2983 83.5256 23.9489C83.5256 23.5994 83.4602 23.294 83.3295 23.0327C83.1989 22.7713 82.9901 22.5696 82.7031 22.4276C82.4162 22.2827 82.0369 22.2102 81.5653 22.2102H79.7074V30H78.6506ZM82.7585 26.0795L84.9062 30H83.679L81.5653 26.0795H82.7585ZM87.3832 21.2727V30H86.3263V21.2727H87.3832ZM96.5249 24H95.468C95.4055 23.696 95.2962 23.429 95.1399 23.1989C94.9865 22.9688 94.799 22.7756 94.5774 22.6193C94.3587 22.4602 94.1158 22.3409 93.8487 22.2614C93.5817 22.1818 93.3033 22.142 93.0135 22.142C92.4851 22.142 92.0064 22.2756 91.5774 22.5426C91.1513 22.8097 90.8118 23.2031 90.5589 23.723C90.3089 24.2429 90.1839 24.8807 90.1839 25.6364C90.1839 26.392 90.3089 27.0298 90.5589 27.5497C90.8118 28.0696 91.1513 28.4631 91.5774 28.7301C92.0064 28.9972 92.4851 29.1307 93.0135 29.1307C93.3033 29.1307 93.5817 29.0909 93.8487 29.0114C94.1158 28.9318 94.3587 28.8139 94.5774 28.6577C94.799 28.4986 94.9865 28.304 95.1399 28.0739C95.2962 27.8409 95.4055 27.5739 95.468 27.2727H96.5249C96.4453 27.7187 96.3004 28.1179 96.0902 28.4702C95.88 28.8224 95.6186 29.1222 95.3061 29.3693C94.9936 29.6136 94.6428 29.7997 94.2536 29.9276C93.8672 30.0554 93.4538 30.1193 93.0135 30.1193C92.2692 30.1193 91.6072 29.9375 91.0277 29.5739C90.4482 29.2102 89.9922 28.6932 89.6598 28.0227C89.3274 27.3523 89.1612 26.5568 89.1612 25.6364C89.1612 24.7159 89.3274 23.9205 89.6598 23.25C89.9922 22.5795 90.4482 22.0625 91.0277 21.6989C91.6072 21.3352 92.2692 21.1534 93.0135 21.1534C93.4538 21.1534 93.8672 21.2173 94.2536 21.3452C94.6428 21.473 94.9936 21.6605 95.3061 21.9077C95.6186 22.152 95.88 22.4503 96.0902 22.8026C96.3004 23.152 96.4453 23.5511 96.5249 24ZM92.5703 30.0341H93.4055L93.3374 30.375C93.5589 30.4091 93.7621 30.5014 93.9467 30.652C94.1314 30.8054 94.2237 31.0483 94.2237 31.3807C94.2237 31.7472 94.0717 32.0455 93.7678 32.2756C93.4666 32.5085 93.022 32.625 92.4339 32.625L92.3999 31.9602C92.6641 31.9602 92.8828 31.9176 93.0561 31.8324C93.2322 31.75 93.3203 31.6108 93.3203 31.4148C93.3203 31.2188 93.2479 31.0852 93.103 31.0142C92.9581 30.9432 92.7237 30.8949 92.3999 30.8693L92.5703 30.0341ZM98.5906 30H97.4826L100.687 21.2727H101.778L104.983 30H103.875L101.267 22.6534H101.199L98.5906 30ZM98.9996 26.5909H103.466V27.5284H98.9996V26.5909ZM99.9201 20.4034L99.136 20.3693C99.136 19.9347 99.2596 19.5795 99.5067 19.304C99.7567 19.0256 100.065 18.8864 100.431 18.8864C100.593 18.8864 100.737 18.9148 100.862 18.9716C100.987 19.0256 101.106 19.0881 101.22 19.1591C101.333 19.2301 101.45 19.294 101.569 19.3509C101.691 19.4048 101.829 19.4318 101.983 19.4318C102.145 19.4318 102.281 19.3693 102.392 19.2443C102.505 19.1165 102.562 18.9631 102.562 18.7841L103.329 18.8523C103.329 19.2955 103.204 19.6477 102.954 19.9091C102.707 20.1705 102.4 20.3011 102.034 20.3011C101.838 20.3011 101.676 20.2741 101.548 20.2202C101.42 20.1634 101.306 20.0994 101.207 20.0284C101.108 19.9574 101.002 19.8949 100.892 19.8409C100.781 19.7841 100.645 19.7557 100.483 19.7557C100.321 19.7557 100.186 19.8196 100.078 19.9474C99.9727 20.0724 99.9201 20.2244 99.9201 20.4034ZM113.295 25.6364C113.295 26.5568 113.129 27.3523 112.797 28.0227C112.464 28.6932 112.009 29.2102 111.429 29.5739C110.849 29.9375 110.188 30.1193 109.443 30.1193C108.699 30.1193 108.037 29.9375 107.457 29.5739C106.878 29.2102 106.422 28.6932 106.089 28.0227C105.757 27.3523 105.591 26.5568 105.591 25.6364C105.591 24.7159 105.757 23.9205 106.089 23.25C106.422 22.5795 106.878 22.0625 107.457 21.6989C108.037 21.3352 108.699 21.1534 109.443 21.1534C110.188 21.1534 110.849 21.3352 111.429 21.6989C112.009 22.0625 112.464 22.5795 112.797 23.25C113.129 23.9205 113.295 24.7159 113.295 25.6364ZM112.273 25.6364C112.273 24.8807 112.146 24.2429 111.893 23.723C111.643 23.2031 111.304 22.8097 110.875 22.5426C110.449 22.2756 109.972 22.142 109.443 22.142C108.915 22.142 108.436 22.2756 108.007 22.5426C107.581 22.8097 107.241 23.2031 106.989 23.723C106.739 24.2429 106.614 24.8807 106.614 25.6364C106.614 26.392 106.739 27.0298 106.989 27.5497C107.241 28.0696 107.581 28.4631 108.007 28.7301C108.436 28.9972 108.915 29.1307 109.443 29.1307C109.972 29.1307 110.449 28.9972 110.875 28.7301C111.304 28.4631 111.643 28.0696 111.893 27.5497C112.146 27.0298 112.273 26.392 112.273 25.6364Z" fill="black"/>
<rect x="125" y="198" width="108" height="21" fill="#D9D9D9"/>
<rect x="32" y="241" width="81" height="29" fill="#509E82" fill-opacity="0.59"/>
<path d="M50.0568 260V251.273H55.3239V252.21H51.1136V255.159H55.0511V256.097H51.1136V259.062H55.392V260H50.0568ZM64.1491 251.273V260H63.1264L58.3707 253.148H58.2855V260H57.2287V251.273H58.2514L63.0241 258.142H63.1094V251.273H64.1491ZM66.6218 251.273L69.2127 258.619H69.315L71.9059 251.273H73.0138L69.8093 260H68.7184L65.5138 251.273H66.6218ZM75.43 251.273V260H74.3732V251.273H75.43ZM77.907 260H76.799L80.0036 251.273H81.0945L84.299 260H83.1911L80.5831 252.653H80.5149L77.907 260ZM78.3161 256.591H82.782V257.528H78.3161V256.591ZM85.6584 260V251.273H88.6072C89.2891 251.273 89.8487 251.389 90.2862 251.622C90.7237 251.852 91.0476 252.169 91.2578 252.572C91.468 252.976 91.5732 253.435 91.5732 253.949C91.5732 254.463 91.468 254.919 91.2578 255.317C91.0476 255.714 90.7251 256.027 90.2905 256.254C89.8558 256.479 89.3004 256.591 88.6243 256.591H86.2379V255.636H88.5902C89.0561 255.636 89.4311 255.568 89.7152 255.432C90.0021 255.295 90.2095 255.102 90.3374 254.852C90.468 254.599 90.5334 254.298 90.5334 253.949C90.5334 253.599 90.468 253.294 90.3374 253.033C90.2067 252.771 89.9979 252.57 89.7109 252.428C89.424 252.283 89.0447 252.21 88.5732 252.21H86.7152V260H85.6584ZM89.7663 256.08L91.9141 260H90.6868L88.5732 256.08H89.7663Z" fill="black"/>
</svg>
